<svg width="78" height="24" viewBox="0 0 78 24" fill="none" xmlns="http://www.w3.org/2000/svg">
<g clip-path="url(#clip0_2200_115228)">
<path d="M23.551 7.06543H25.4584V14.9415C25.4584 16.9618 25.7924 18.3938 26.4602 19.2375C27.1281 20.0756 28.2318 20.4974 29.76 20.4974C30.6316 20.4974 31.3957 20.3254 32.058 19.9812C32.7202 19.6316 33.2522 19.132 33.6541 18.4771C33.8805 18.0886 34.0503 17.6334 34.1465 17.1061C34.2484 16.5788 34.2993 15.663 34.2993 14.3642V7.06543H36.235V21.8961H34.2993V20.2921C33.7107 20.997 33.0598 21.5021 32.3353 21.8129C31.6108 22.1293 30.7335 22.2847 29.7091 22.2847C27.53 22.2847 25.9565 21.7074 24.9943 20.5529C24.0321 19.3984 23.551 17.4836 23.551 14.8027V7.06543V7.06543Z" fill="#4B4B4B"/>
<path d="M38.3179 2.68618H40.2309V5.11726C40.78 4.2847 41.5667 3.6131 42.5911 3.11356C43.6099 2.61403 44.7023 2.36426 45.8569 2.36426C48.1379 2.36426 50.0283 3.10801 51.5282 4.59553C53.0281 6.08304 53.7752 7.94243 53.7752 10.1681C53.7752 12.3439 53.0338 14.1755 51.5565 15.6686C50.0736 17.1617 48.2285 17.9054 46.0041 17.9054C44.7759 17.9054 43.6722 17.6723 42.6817 17.2005C41.6969 16.7343 40.8818 16.0571 40.2309 15.1635V16.1848V18.3939V22.3069H38.3179V2.68618ZM40.2309 10.0127C40.2309 11.7056 40.7969 13.1487 41.9346 14.3476C43.0722 15.5465 44.4136 16.1515 45.9532 16.1515C47.5379 16.1515 48.902 15.5853 50.034 14.4475C51.1716 13.3097 51.7376 11.9165 51.7376 10.2625C51.7376 8.53077 51.166 7.07101 50.0227 5.89987C48.8793 4.72874 47.504 4.14039 45.8796 4.14039C44.3853 4.14039 43.0722 4.72874 41.9346 5.90542C40.7969 7.07656 40.2309 8.44751 40.2309 10.0127Z" fill="#4B4B4B"/>
<path d="M70.2004 15.086H56.5485C56.6674 16.7012 57.2617 18.0055 58.3371 18.999C59.4125 19.9926 60.7482 20.4921 62.35 20.4921C63.4877 20.4921 64.5065 20.2035 65.4177 19.6262C66.3233 19.049 67.0251 18.2442 67.5232 17.2174H69.7249C69.0288 18.8603 68.0496 20.1202 66.7874 20.9972C65.5252 21.8742 64.065 22.3126 62.4066 22.3126C60.2049 22.3126 58.3428 21.5467 56.8259 20.0092C55.3034 18.4718 54.5449 16.6235 54.5449 14.4699C54.5449 12.2109 55.2864 10.3459 56.7806 8.87508C58.2692 7.40422 60.1709 6.66602 62.4915 6.66602C64.7668 6.66602 66.6176 7.43197 68.0552 8.96389C69.4872 10.4958 70.206 12.494 70.206 14.9472V15.086H70.2004ZM68.0609 13.4264C67.693 11.778 67.0195 10.5347 66.0403 9.70209C65.0555 8.86953 63.7763 8.45325 62.2028 8.45325C60.7369 8.45325 59.4917 8.89728 58.4786 9.79645C57.4598 10.6901 56.8372 11.9001 56.6108 13.4264H68.0609Z" fill="#4B4B4B"/>
<path d="M73.189 21.8965V8.98065H70.3137V7.06576H73.189V2.26465H75.1247V7.06576H77.9999V8.98065H75.1247V21.8965H73.189Z" fill="#4B4B4B"/>
<path d="M10.9803 24C4.92417 24 0 19.0768 0 13.0213C0 10.6457 0.747116 8.38668 2.15645 6.48844C3.53182 4.6346 5.41093 3.28585 7.59568 2.58094L7.62398 2.56984C7.64096 2.56429 8.11639 2.37003 8.41637 1.70398L8.42769 1.68178C8.43901 1.65402 8.45599 1.62072 8.46731 1.59297L8.85785 0.982424C9.37857 0.366327 10.1483 0 10.9803 0C11.8293 0 12.6104 0.382979 13.1255 1.01573L13.55 1.70398C13.8499 2.37003 14.331 2.56429 14.348 2.56984L14.5122 2.6309C16.6346 3.35245 18.4572 4.68455 19.8042 6.49399C21.2136 8.39223 21.9607 10.6512 21.9607 13.0213C21.9663 19.0768 17.0365 24 10.9803 24ZM8.43335 3.13043L7.88433 3.30805C5.84109 3.95745 4.0865 5.21739 2.79602 6.94357C1.48291 8.71415 0.792395 10.8122 0.792395 13.0213C0.792395 18.6438 5.36565 23.2229 10.9803 23.2229C16.6007 23.2229 21.1683 18.6494 21.1683 13.0213C21.1683 10.8122 20.4778 8.71415 19.1646 6.94912C17.8855 5.21739 16.1252 3.95745 14.0877 3.30805L13.516 3.12488L13.1707 2.89732L12.8142 2.02035C12.5142 1.26549 11.7897 0.777058 10.9803 0.777058C10.1766 0.777058 9.45781 1.25994 9.14651 2.0037L8.77295 2.91397L8.43335 3.13043Z" fill="#4B4B4B"/>
<path d="M14.6422 7.40951C15.4119 7.71478 15.9723 9.19674 15.4855 10.3568C14.9988 11.5168 13.3574 12.5436 12.5876 12.2328C11.8179 11.922 11.4669 10.0127 11.9537 8.84707C12.4348 7.68703 13.8724 7.09869 14.6422 7.40951Z" fill="#4B4B4B"/>
<path d="M8.41075 7.12684C9.20881 6.89373 10.5785 7.60973 10.9464 8.81417C11.32 10.0131 10.7823 11.8891 9.98988 12.1222C9.19182 12.3553 7.65797 10.9733 7.28441 9.77439C6.91651 8.56995 7.61835 7.36551 8.41075 7.12684Z" fill="#4B4B4B"/>
<path d="M5.07126 13.6323C4.12604 13.0883 3.71853 11.8506 4.0751 11.2512C4.43168 10.6517 5.80139 10.4408 6.74095 10.9847C7.68616 11.5231 8.37668 12.8774 8.0201 13.4769C7.65786 14.0763 6.01081 14.1707 5.07126 13.6323Z" fill="#4B4B4B"/>
<path d="M13.4368 18.489C12.2425 18.8165 11.9369 18.1282 10.8615 18.0727C9.78608 18.0117 9.29933 19.1828 8.07111 18.8498C6.8429 18.5167 7.24476 16.7739 7.24476 16.7739C8.25223 12.7221 10.5332 12.4779 10.5332 12.4779C12.418 12.3003 13.7877 14.5204 13.7877 14.5204C15.8988 17.6009 13.4368 18.489 13.4368 18.489Z" fill="#4B4B4B"/>
<path d="M16.9628 14.2926C16.1308 14.7811 14.6366 14.8199 14.2857 14.2205C13.9348 13.6155 14.6989 12.3333 15.5309 11.8449C16.3629 11.3565 17.4213 11.6118 17.7722 12.2112C18.1231 12.8162 17.7949 13.8042 16.9628 14.2926Z" fill="#4B4B4B"/>
</g>
<defs>
<clipPath id="clip0_2200_115228">
<rect width="78" height="24" fill="white"/>
</clipPath>
</defs>
</svg>
